<svg width="217" height="190" viewBox="0 0 217 190" fill="none" xmlns="http://www.w3.org/2000/svg">
<path d="M177.68 138.762C182.571 126.901 182.974 113.869 178.694 101.158C176.348 94.1902 172.724 87.5923 167.924 81.4753C161.022 72.6793 151.689 64.8782 140.228 58.3967C122.873 48.5814 105.528 46.0276 88.7947 43.5641C67.6775 40.454 47.8052 37.5212 28.8336 19.9338L28.8331 19.9332C26.6547 17.9267 23.6845 17.1196 20.8431 17.7731L20.8431 17.7731L20.8419 17.7734C17.5855 18.5398 15.4106 20.801 14.3773 24.4803L177.68 138.762ZM177.68 138.762C184.305 140.191 191.107 141.374 198.127 142.321H198.129L198.143 142.322C199.067 142.429 199.958 142.697 200.764 143.11C201.571 143.524 202.277 144.075 202.841 144.733C203.404 145.392 203.814 146.144 204.043 146.947C204.272 147.75 204.317 148.585 204.173 149.404C204.029 150.222 203.7 151.006 203.207 151.708C202.715 152.41 202.069 153.017 201.308 153.494C200.548 153.971 199.688 154.31 198.78 154.491C197.872 154.672 196.932 154.693 196.016 154.552C187.707 153.446 179.469 151.97 171.332 150.131M177.68 138.762L171.332 150.131M68.2151 89.6212C67.5776 90.2107 67.0772 90.9064 66.7445 91.6694C66.4118 92.4326 66.2538 93.247 66.2806 94.0657C66.3074 94.8843 66.5185 95.6891 66.9004 96.4337C67.2822 97.1781 67.8269 97.8469 68.5013 98.403C100.659 124.912 132.989 141.339 170.798 150.01C162.514 161.087 147.975 168.717 130.506 171.034C126.621 171.542 122.698 171.795 118.77 171.789H118.77C97.9249 171.789 76.9502 164.678 60.8909 151.842C48.4717 141.907 31.3934 121.649 20.6872 81.5651L20.6872 81.5651C17.3532 69.0895 15.3054 56.9437 14.3875 46.8651C13.4686 36.7751 13.6854 28.7892 14.8587 24.6156L14.8587 24.6155C15.8513 21.081 17.9059 18.9783 20.9558 18.2602C23.6323 17.6448 26.4342 18.4036 28.494 20.3007C47.5869 38.0005 67.6011 40.9482 88.7095 44.0569L88.7218 44.0588C105.462 46.5233 122.719 49.0684 139.982 58.832C151.395 65.2864 160.675 73.0471 167.53 81.7839C172.298 87.8595 175.894 94.4074 178.22 101.318C182.472 113.944 182.06 126.879 177.188 138.645C140.471 130.659 109.252 115.028 78.1309 89.3596C77.4577 88.8044 76.6679 88.3722 75.8073 88.0862C74.9466 87.8002 74.0309 87.6657 73.1121 87.6899C72.1933 87.7141 71.2881 87.8965 70.4482 88.2274C69.6085 88.5582 68.8495 89.0314 68.2151 89.6212ZM68.2151 89.6212L68.3848 89.8048L68.2146 89.6217C68.2148 89.6216 68.2149 89.6214 68.2151 89.6212ZM171.332 150.131C162.97 161.439 148.23 169.187 130.572 171.53L130.572 171.53C126.665 172.041 122.719 172.295 118.769 172.289M171.332 150.131L14.3773 24.4804C13.1772 28.7492 12.9702 36.8149 13.8896 46.9105C14.8101 57.0176 16.8628 69.1914 20.2041 81.6941M118.769 172.289L118.77 172.039V172.289C118.769 172.289 118.769 172.289 118.769 172.289ZM118.769 172.289C97.816 172.289 76.7302 165.143 60.5787 152.233L60.7347 152.037L60.5786 152.232C48.0683 142.225 30.9352 121.871 20.2041 81.6941M20.2041 81.6941C20.2041 81.6941 20.2041 81.6941 20.2041 81.6941L20.4457 81.6296L20.2041 81.6941ZM77.9718 89.5525C109.178 115.292 140.491 130.952 177.338 138.934C182.31 127.059 182.751 113.989 178.457 101.238C176.121 94.2988 172.511 87.7259 167.727 81.6296C160.848 72.8632 151.542 65.0823 140.105 58.6144C122.796 48.8249 105.495 46.2755 88.7583 43.8114C67.6431 40.7017 47.6978 37.7626 28.6637 20.1171C26.5445 18.1651 23.6583 17.3821 20.8991 18.0167C17.7459 18.7589 15.631 20.9409 14.618 24.548C12.2446 32.9903 13.7704 56.6513 20.4457 81.6296C31.1643 121.76 48.27 142.066 60.7347 152.037C76.8402 164.91 97.8706 172.039 118.77 172.039M130.539 171.282C148.103 168.952 162.742 161.263 171.065 150.071M171.065 150.07C171.119 149.997 171.173 149.925 171.227 149.851C133.298 141.212 100.897 124.784 68.6603 98.2101M68.5546 89.9883L68.5551 89.9879C69.1417 89.4423 69.847 89.0017 70.6315 88.6926C71.4161 88.3835 72.2635 88.2124 73.1252 88.1898C73.9869 88.1671 74.8448 88.2933 75.6496 88.5607C76.4544 88.8281 77.1892 89.2311 77.8128 89.7453C108.966 115.441 140.233 131.106 176.999 139.116C175.642 142.311 173.968 145.396 171.994 148.335L171.994 148.336C171.716 148.751 171.425 149.164 171.126 149.572C133.306 140.933 100.984 124.532 68.8194 98.0172C68.1947 97.5022 67.6944 96.8862 67.3453 96.2055C66.9962 95.5249 66.8047 94.7923 66.7803 94.0493C66.756 93.3063 66.8992 92.5657 67.2029 91.8693C67.5066 91.1728 67.9653 90.5333 68.5546 89.9883Z" stroke="#29462C" stroke-width="0.5"/>
</svg>
